<svg width="112" height="23" viewBox="0 0 112 23" fill="none" xmlns="http://www.w3.org/2000/svg">
<path d="M10.28 16.48C10.2533 16.4933 10.2267 16.5 10.2 16.5C10.1733 16.5 10.12 16.5 10.04 16.5C9.85333 16.5 9.63333 16.4667 9.38 16.4C9.14 16.3467 8.9 16.2733 8.66 16.18C8.43333 16.1 8.23333 16.0067 8.06 15.9C7.9 15.7933 7.8 15.7 7.76 15.62C7.74667 15.4333 7.74 15.24 7.74 15.04C7.74 14.84 7.74 14.6467 7.74 14.46C7.74 12.9667 7.84667 11.4067 8.06 9.78C8.28667 8.15333 8.65333 6.39333 9.16 4.5C9.21333 4.31333 9.26667 4.08 9.32 3.8C9.38667 3.50667 9.45333 3.19333 9.52 2.86C9.2 3.11333 8.82 3.52 8.38 4.08C7.94 4.62667 7.47333 5.28 6.98 6.04C6.5 6.78667 6.01333 7.61333 5.52 8.52C5.04 9.41333 4.6 10.3267 4.2 11.26C3.8 12.18 3.45333 13.0933 3.16 14C2.88 14.9067 2.70667 15.7467 2.64 16.52C2 16.3333 1.55333 16.1467 1.3 15.96C1.06 15.7733 0.94 15.5467 0.94 15.28C0.94 15.04 1.01333 14.7 1.16 14.26C1.30667 13.82 1.51333 13.3 1.78 12.7C2.04667 12.1 2.37333 11.4333 2.76 10.7C3.14667 9.95333 3.57333 9.15333 4.04 8.3C4.57333 7.32667 5.09333 6.41333 5.6 5.56C6.12 4.70667 6.62667 3.93333 7.12 3.24C7.61333 2.54667 8.09333 1.94667 8.56 1.44C9.04 0.933333 9.51333 0.546666 9.98 0.279999C10.1667 0.279999 10.4133 0.326666 10.72 0.419999C11.04 0.513332 11.3467 0.626666 11.64 0.76C11.9467 0.893333 12.2133 1.03333 12.44 1.18C12.68 1.31333 12.8133 1.42667 12.84 1.52C12.6533 1.89333 12.4333 2.45333 12.18 3.2C11.9267 3.94667 11.6667 4.79333 11.4 5.74C11.1467 6.68667 10.9 7.69333 10.66 8.76C10.4333 9.81333 10.2533 10.8267 10.12 11.8C10.4267 11.0667 10.78 10.3067 11.18 9.52C11.5933 8.72 12.0267 7.93333 12.48 7.16C12.9333 6.37333 13.3933 5.61333 13.86 4.88C14.34 4.14667 14.8067 3.48 15.26 2.88C15.7133 2.26667 16.1333 1.73333 16.52 1.28C16.92 0.826666 17.2733 0.493333 17.58 0.279999C17.7667 0.279999 18.0133 0.326666 18.32 0.419999C18.64 0.513332 18.9467 0.626666 19.24 0.76C19.5467 0.893333 19.8133 1.03333 20.04 1.18C20.28 1.31333 20.4133 1.42667 20.44 1.52C20.0133 2.28 19.64 3.20667 19.32 4.3C19 5.39333 18.7267 6.54 18.5 7.74C18.2867 8.94 18.12 10.1333 18 11.32C17.8933 12.4933 17.84 13.5467 17.84 14.48C17.84 14.7867 17.84 15.1067 17.84 15.44C17.84 15.7733 17.8533 16.12 17.88 16.48C17.6933 16.48 17.4667 16.4533 17.2 16.4C16.9467 16.36 16.6933 16.3 16.44 16.22C16.2 16.14 15.98 16.0467 15.78 15.94C15.58 15.8467 15.44 15.74 15.36 15.62C15.3467 15.4333 15.34 15.24 15.34 15.04C15.34 14.84 15.34 14.6467 15.34 14.46C15.34 12.9667 15.4467 11.4067 15.66 9.78C15.8867 8.15333 16.2533 6.39333 16.76 4.5C16.8133 4.31333 16.8733 4.06 16.94 3.74C17.0067 3.42 17.0733 3.08667 17.14 2.74C16.7667 2.92667 16.34 3.28667 15.86 3.82C15.3933 4.34 14.9133 4.98 14.42 5.74C13.94 6.48667 13.46 7.32 12.98 8.24C12.5133 9.16 12.0867 10.1 11.7 11.06C11.3267 12.0067 11.0067 12.9533 10.74 13.9C10.4867 14.8333 10.3333 15.6933 10.28 16.48ZM22.6008 15.7C21.8408 15.62 21.2341 15.2867 20.7808 14.7C20.3274 14.1133 20.1008 13.3667 20.1008 12.46C20.1008 11.9267 20.1808 11.3733 20.3408 10.8C20.5008 10.2267 20.7274 9.67333 21.0208 9.14C21.3141 8.59333 21.6608 8.08 22.0608 7.6C22.4608 7.12 22.8941 6.70667 23.3608 6.36C24.0941 5.81333 24.7808 5.54 25.4208 5.54C25.8474 5.76667 26.2674 6.24 26.6808 6.96C26.7474 6.96 26.8074 6.96 26.8608 6.96C26.9141 6.94667 26.9741 6.94 27.0408 6.94C27.7474 6.94 28.1008 7.56667 28.1008 8.82C28.1008 9.66 27.9608 10.46 27.6808 11.22C27.4141 11.9667 27.0341 12.6467 26.5408 13.26C26.0608 13.8733 25.4808 14.3933 24.8008 14.82C24.1341 15.2333 23.4008 15.5267 22.6008 15.7ZM23.6208 9.4C23.3941 9.70667 23.1808 10.04 22.9808 10.4C22.7808 10.76 22.6074 11.1267 22.4608 11.5C22.3141 11.86 22.2008 12.2133 22.1208 12.56C22.0408 12.8933 22.0008 13.1933 22.0008 13.46C22.0008 13.78 22.0541 14.0867 22.1608 14.38C22.2674 14.6733 22.3874 14.84 22.5208 14.88C23.1208 14.7467 23.6674 14.5 24.1608 14.14C24.6674 13.7667 25.1008 13.3067 25.4608 12.76C25.8341 12.2133 26.1208 11.5933 26.3208 10.9C26.5341 10.2067 26.6408 9.46667 26.6408 8.68C26.6408 8.33333 26.6208 8.06 26.5808 7.86C26.5408 7.66 26.4741 7.48667 26.3808 7.34C25.7941 7.51333 25.2674 7.79333 24.8008 8.18C24.3474 8.56667 23.9541 8.97333 23.6208 9.4ZM40.6289 8.86C40.4156 8.87333 40.1556 9.01333 39.8489 9.28C39.5422 9.53333 39.2089 9.86667 38.8489 10.28C38.5022 10.68 38.1356 11.1267 37.7489 11.62C37.3756 12.1133 37.0089 12.6067 36.6489 13.1C36.3022 13.58 35.9756 14.0333 35.6689 14.46C35.3622 14.8867 35.1022 15.2267 34.8889 15.48C34.5956 15.36 34.3422 15.1867 34.1289 14.96C33.9156 14.72 33.7622 14.4267 33.6689 14.08C33.7356 13.6667 33.8289 13.24 33.9489 12.8C34.0689 12.3467 34.2222 11.88 34.4089 11.4C34.6089 10.92 34.8489 10.42 35.1289 9.9C35.4222 9.36667 35.7756 8.80667 36.1889 8.22C35.9889 8.23333 35.7156 8.38 35.3689 8.66C35.0222 8.92667 34.6489 9.28 34.2489 9.72C33.8489 10.1467 33.4356 10.6333 33.0089 11.18C32.5822 11.7133 32.1822 12.24 31.8089 12.76C31.3156 13.4533 30.9022 14.06 30.5689 14.58C30.2489 15.1 30.0156 15.4067 29.8689 15.5C29.5222 15.2467 29.2822 14.9733 29.1489 14.68C29.0156 14.3867 28.9156 14.06 28.8489 13.7C28.8622 13.38 28.9089 12.98 28.9889 12.5C29.0822 12.02 29.2089 11.5267 29.3689 11.02C29.6756 10.0467 30.0689 9.08 30.5489 8.12C31.0422 7.16 31.5156 6.28 31.9689 5.48C32.3422 5.56 32.6756 5.68667 32.9689 5.86C33.2756 6.03333 33.5956 6.28667 33.9289 6.62C33.7956 7.03333 33.5889 7.47333 33.3089 7.94C33.0289 8.39333 32.7356 8.87333 32.4289 9.38C32.1222 9.88667 31.8422 10.4067 31.5889 10.94C31.3356 11.4733 31.1689 12.0133 31.0889 12.56C31.4622 12.0267 31.9022 11.4133 32.4089 10.72C32.9289 10.0267 33.4556 9.37333 33.9889 8.76C34.5356 8.14667 35.0756 7.62667 35.6089 7.2C36.1422 6.77333 36.6222 6.56 37.0489 6.56C37.2089 6.56 37.3822 6.58667 37.5689 6.64C37.7556 6.69333 37.9289 6.76 38.0889 6.84C38.2489 6.92 38.3822 7 38.4889 7.08C38.5956 7.14667 38.6556 7.2 38.6689 7.24C38.6022 7.50667 38.4422 7.87333 38.1889 8.34C37.9489 8.79333 37.6889 9.27333 37.4089 9.78C37.1289 10.2867 36.8689 10.78 36.6289 11.26C36.3889 11.7267 36.2489 12.1 36.2089 12.38C36.8622 11.4867 37.4756 10.68 38.0489 9.96C38.6222 9.22667 39.1622 8.6 39.6689 8.08C40.1756 7.56 40.6422 7.16 41.0689 6.88C41.5089 6.6 41.9222 6.46 42.3089 6.46C42.5756 6.46 42.8222 6.53333 43.0489 6.68C43.2889 6.81333 43.4556 7.01333 43.5489 7.28C43.4289 7.68 43.2289 8.16 42.9489 8.72C42.6822 9.28 42.4089 9.87333 42.1289 10.5C41.8489 11.1133 41.5956 11.72 41.3689 12.32C41.1556 12.92 41.0489 13.46 41.0489 13.94C41.0489 14.22 41.0889 14.4067 41.1689 14.5C41.2489 14.58 41.3622 14.62 41.5089 14.62C41.6689 14.62 41.8156 14.5933 41.9489 14.54C42.0956 14.4733 42.2022 14.44 42.2689 14.44C42.3489 14.4933 42.3956 14.56 42.4089 14.64C42.4222 14.72 42.4289 14.7933 42.4289 14.86C42.1622 15.0733 41.8889 15.2467 41.6089 15.38C41.3289 15.5267 41.0156 15.6 40.6689 15.6C40.3489 15.6 40.0822 15.5467 39.8689 15.44C39.6689 15.3333 39.5022 15.1867 39.3689 15C39.2356 14.8133 39.1422 14.6 39.0889 14.36C39.0356 14.12 39.0089 13.86 39.0089 13.58C39.0089 13.1267 39.0689 12.68 39.1889 12.24C39.3089 11.7867 39.4489 11.36 39.6089 10.96C39.7822 10.5467 39.9622 10.1667 40.1489 9.82C40.3356 9.46 40.4956 9.14 40.6289 8.86ZM51.5219 6.72C51.4685 7.54667 51.3219 8.26 51.0819 8.86C50.8419 9.44667 50.4952 9.96667 50.0419 10.42C49.6019 10.86 49.0619 11.26 48.4219 11.62C47.7819 11.98 47.0352 12.3267 46.1819 12.66C46.1819 12.74 46.1752 12.8267 46.1619 12.92C46.1619 13 46.1619 13.0867 46.1619 13.18C46.1619 13.3533 46.1752 13.5333 46.2019 13.72C46.2285 13.9067 46.2752 14.08 46.3419 14.24C46.4085 14.4 46.5019 14.5333 46.6219 14.64C46.7419 14.7333 46.8952 14.78 47.0819 14.78C47.4419 14.78 47.7952 14.7 48.1419 14.54C48.4885 14.38 48.8152 14.1867 49.1219 13.96C49.4419 13.72 49.7352 13.4667 50.0019 13.2C50.2819 12.92 50.5285 12.6667 50.7419 12.44C50.8752 12.56 50.9885 12.6733 51.0819 12.78C50.4819 13.58 49.8219 14.2467 49.1019 14.78C48.3952 15.3 47.7219 15.6333 47.0819 15.78C46.1619 15.6733 45.4419 15.34 44.9219 14.78C44.4152 14.2067 44.1619 13.52 44.1619 12.72C44.1619 12.1733 44.2352 11.62 44.3819 11.06C44.5419 10.4867 44.7552 9.94 45.0219 9.42C45.3019 8.88667 45.6219 8.38667 45.9819 7.92C46.3552 7.45333 46.7485 7.04667 47.1619 6.7C47.5885 6.35333 48.0219 6.08 48.4619 5.88C48.9152 5.68 49.3619 5.58 49.8019 5.58C50.4152 5.66 50.9885 6.04 51.5219 6.72ZM50.1419 7.38C49.7819 7.43333 49.4085 7.58 49.0219 7.82C48.6352 8.06 48.2685 8.38 47.9219 8.78C47.5885 9.18 47.2819 9.64667 47.0019 10.18C46.7219 10.7133 46.5019 11.2867 46.3419 11.9C47.4085 11.3667 48.2952 10.7133 49.0019 9.94C49.7085 9.15333 50.0885 8.3 50.1419 7.38ZM55.6878 5.3C56.0345 5.40667 56.3611 5.64667 56.6678 6.02C56.9745 6.38 57.2011 6.78 57.3478 7.22C57.2011 7.58 56.9745 8.01333 56.6678 8.52C56.3611 9.02667 56.0545 9.54667 55.7478 10.08C55.4411 10.6 55.1611 11.1 54.9078 11.58C54.6678 12.0467 54.5278 12.4333 54.4878 12.74C54.7011 12.5133 54.9345 12.2533 55.1878 11.96C55.4545 11.6533 55.7078 11.3533 55.9478 11.06C56.2011 10.7533 56.4345 10.48 56.6478 10.24C56.8611 9.98667 57.0278 9.8 57.1478 9.68C57.4011 9.41333 57.7011 9.10667 58.0478 8.76C58.3945 8.4 58.7545 8.06667 59.1278 7.76C59.5145 7.44 59.9011 7.17333 60.2878 6.96C60.6745 6.73333 61.0278 6.62 61.3478 6.62C61.6945 6.62 61.9811 6.74 62.2078 6.98C62.4478 7.20667 62.6345 7.44667 62.7678 7.7C62.7678 7.72667 62.7145 7.76667 62.6078 7.82C62.5145 7.86 62.3745 7.98667 62.1878 8.2C62.0011 8.44 61.7878 8.77333 61.5478 9.2C61.3211 9.61333 61.0945 10.0667 60.8678 10.56C60.6545 11.04 60.4745 11.5333 60.3278 12.04C60.1811 12.5467 60.1078 13.0067 60.1078 13.42C60.1078 13.7533 60.1478 13.9667 60.2278 14.06C60.3211 14.1533 60.4478 14.2 60.6078 14.2C60.7545 14.2 60.9078 14.1667 61.0678 14.1C61.2278 14.0333 61.3545 14 61.4478 14C61.5011 14.0267 61.5411 14.0867 61.5678 14.18C61.6078 14.26 61.6278 14.3333 61.6278 14.4C61.5211 14.4933 61.3945 14.5867 61.2478 14.68C61.1011 14.7733 60.9478 14.86 60.7878 14.94C60.6278 15.02 60.4678 15.0867 60.3078 15.14C60.1611 15.1933 60.0278 15.22 59.9078 15.22C59.5211 15.22 59.2011 15.16 58.9478 15.04C58.7078 14.9333 58.5145 14.7867 58.3678 14.6C58.2345 14.4133 58.1411 14.1933 58.0878 13.94C58.0345 13.6733 58.0078 13.3933 58.0078 13.1C58.0078 12.94 58.0211 12.76 58.0478 12.56C58.0745 12.36 58.1278 12.1267 58.2078 11.86C58.2878 11.58 58.4011 11.2533 58.5478 10.88C58.6945 10.4933 58.8811 10.0333 59.1078 9.5C59.0811 9.5 58.9011 9.59333 58.5678 9.78C58.2345 9.96667 57.8745 10.2533 57.4878 10.64C56.8611 11.24 56.2945 11.8333 55.7878 12.42C55.2945 13.0067 54.7878 13.66 54.2678 14.38C53.9745 14.7933 53.7145 15.14 53.4878 15.42C53.2745 15.7133 53.0878 15.9067 52.9278 16C52.6478 15.84 52.4411 15.6133 52.3078 15.32C52.1745 15.04 52.0745 14.7467 52.0078 14.44C52.0078 14.1867 52.0411 13.8667 52.1078 13.48C52.1878 13.0933 52.2878 12.6667 52.4078 12.2C52.5411 11.72 52.7011 11.22 52.8878 10.7C53.0745 10.18 53.2811 9.66 53.5078 9.14C54.0145 7.96667 54.4745 7.04667 54.8878 6.38C55.3145 5.71333 55.5811 5.35333 55.6878 5.3ZM64.4286 7.34C64.3619 7.26 64.3019 7.09333 64.2486 6.84C64.1953 6.57333 64.1686 6.34667 64.1686 6.16C64.5153 6.18667 64.8486 6.21333 65.1686 6.24C65.4886 6.25333 65.7819 6.26667 66.0486 6.28C66.2486 5.88 66.4619 5.48667 66.6886 5.1C66.9286 4.7 67.1553 4.34 67.3686 4.02C67.5953 3.68667 67.8019 3.40667 67.9886 3.18C68.1886 2.95333 68.3419 2.80667 68.4486 2.74C68.5819 2.74 68.7486 2.76667 68.9486 2.82C69.1619 2.86 69.3753 2.92 69.5886 3C69.8019 3.06667 69.9953 3.14 70.1686 3.22C70.3419 3.3 70.4619 3.38 70.5286 3.46C70.1286 3.96667 69.7819 4.44 69.4886 4.88C69.2086 5.30667 68.9019 5.8 68.5686 6.36C68.8353 6.36 69.1019 6.35333 69.3686 6.34C69.6486 6.32667 69.9286 6.30667 70.2086 6.28C70.2753 6.34667 70.3286 6.43333 70.3686 6.54C70.4086 6.63333 70.4286 6.73333 70.4286 6.84C69.7753 7.08 68.9819 7.21333 68.0486 7.24C67.7153 7.88 67.4153 8.52 67.1486 9.16C66.8953 9.78667 66.6753 10.3933 66.4886 10.98C66.3153 11.5667 66.1753 12.12 66.0686 12.64C65.9753 13.16 65.9286 13.6267 65.9286 14.04C65.9286 14.6267 66.1486 14.9533 66.5886 15.02C66.9886 14.9667 67.3686 14.8667 67.7286 14.72C68.0886 14.5733 68.4086 14.3867 68.6886 14.16C68.7686 14.28 68.8153 14.38 68.8286 14.46C68.7486 14.58 68.6086 14.72 68.4086 14.88C68.2219 15.04 68.0153 15.1933 67.7886 15.34C67.5619 15.5 67.3419 15.6333 67.1286 15.74C66.9153 15.8467 66.7553 15.9067 66.6486 15.92C66.3153 15.9067 65.9819 15.8333 65.6486 15.7C65.3153 15.5667 65.0086 15.4 64.7286 15.2C64.4619 15 64.2419 14.78 64.0686 14.54C63.8953 14.2867 63.8086 14.04 63.8086 13.8C63.8086 13.48 63.8486 13.08 63.9286 12.6C64.0219 12.1067 64.1486 11.5733 64.3086 11C64.4686 10.4267 64.6553 9.82667 64.8686 9.2C65.0819 8.57333 65.3153 7.95333 65.5686 7.34H64.4286ZM66.1422 20.96C66.1422 20.88 66.1689 20.8067 66.2222 20.74C66.2755 20.6733 66.3355 20.6067 66.4022 20.54C66.5622 20.6867 66.7022 20.8 66.8222 20.88C66.9289 20.96 67.0355 21.0267 67.1422 21.08C67.2355 21.1333 67.3355 21.1667 67.4422 21.18C67.5489 21.1933 67.6755 21.2 67.8222 21.2C68.5155 21.2 69.1755 21.0133 69.8022 20.64C70.4289 20.28 71.0155 19.7533 71.5622 19.06C72.1222 18.3667 72.6289 17.52 73.0822 16.52C73.5355 15.52 73.9355 14.3867 74.2822 13.12C74.1222 13.28 73.9222 13.46 73.6822 13.66C73.4555 13.8467 73.2155 14.0267 72.9622 14.2C72.7089 14.3733 72.4555 14.5333 72.2022 14.68C71.9622 14.8267 71.7555 14.9333 71.5822 15C71.3555 14.96 71.1422 14.8667 70.9422 14.72C70.7555 14.56 70.5889 14.3667 70.4422 14.14C70.2955 13.9133 70.1822 13.66 70.1022 13.38C70.0222 13.0867 69.9822 12.78 69.9822 12.46C69.9822 11.94 70.0755 11.4067 70.2622 10.86C70.4622 10.3133 70.7222 9.78 71.0422 9.26C71.3622 8.72667 71.7355 8.22667 72.1622 7.76C72.6022 7.29333 73.0622 6.88667 73.5422 6.54C74.0355 6.19333 74.5289 5.92 75.0222 5.72C75.5289 5.50667 76.0222 5.4 76.5022 5.4C76.9689 5.4 77.3155 5.5 77.5422 5.7C77.7822 5.88667 77.9555 6.21333 78.0622 6.68C77.9155 6.6 77.7289 6.56 77.5022 6.56C77.1822 6.56 76.8089 6.68667 76.3822 6.94C75.9689 7.19333 75.5422 7.52667 75.1022 7.94C74.6755 8.34 74.2489 8.80667 73.8222 9.34C73.3955 9.86 73.0155 10.3933 72.6822 10.94C72.3622 11.4867 72.0955 12.02 71.8822 12.54C71.6822 13.06 71.5822 13.5267 71.5822 13.94C71.5822 14.0333 71.5889 14.0933 71.6022 14.12C71.6155 14.1333 71.6355 14.14 71.6622 14.14C71.7822 14.14 71.9422 14.0733 72.1422 13.94C72.3555 13.8067 72.5889 13.64 72.8422 13.44C73.1089 13.2267 73.3822 12.9867 73.6622 12.72C73.9422 12.44 74.2089 12.16 74.4622 11.88C75.0355 11.24 75.5555 10.5267 76.0222 9.74C76.5022 8.94 76.8822 8.16667 77.1622 7.42C77.5222 7.44667 77.8422 7.50667 78.1222 7.6C78.4022 7.69333 78.5955 7.79333 78.7022 7.9C78.2489 8.94 77.8822 9.81333 77.6022 10.52C77.3355 11.2267 77.1022 11.8533 76.9022 12.4C76.5422 13.36 76.2022 14.2333 75.8822 15.02C75.5755 15.82 75.2555 16.5533 74.9222 17.22C74.6022 17.9 74.2489 18.5267 73.8622 19.1C73.4889 19.6867 73.0622 20.2467 72.5822 20.78C72.3555 21.0333 72.0955 21.2533 71.8022 21.44C71.5222 21.64 71.2289 21.8067 70.9222 21.94C70.6289 22.0733 70.3355 22.1733 70.0422 22.24C69.7622 22.3067 69.5022 22.34 69.2622 22.34C68.9422 22.34 68.6155 22.3 68.2822 22.22C67.9489 22.1533 67.6422 22.0533 67.3622 21.92C67.0689 21.8 66.8155 21.6533 66.6022 21.48C66.3889 21.32 66.2355 21.1467 66.1422 20.96ZM78.7061 14.6C78.7728 14.2133 78.8861 13.7067 79.0461 13.08C79.2194 12.44 79.4194 11.7667 79.6461 11.06C79.8728 10.34 80.1128 9.62 80.3661 8.9C80.6194 8.18 80.8661 7.53333 81.1061 6.96C81.2794 6.54667 81.4328 6.22667 81.5661 6C81.6994 5.76 81.8461 5.56 82.0061 5.4C82.1928 5.42667 82.3861 5.47333 82.5861 5.54C82.7861 5.60667 82.9794 5.68667 83.1661 5.78C83.3528 5.87333 83.5194 5.97333 83.6661 6.08C83.8128 6.17333 83.9261 6.26667 84.0061 6.36C83.6461 6.78667 83.3261 7.27333 83.0461 7.82C82.7794 8.36667 82.5061 9.06667 82.2261 9.92C82.9461 9.28 83.5794 8.66667 84.1261 8.08C84.6861 7.49333 85.2061 6.84 85.6861 6.12C85.7661 6.05333 85.9061 6.02 86.1061 6.02C86.2928 6.02 86.4728 6.05333 86.6461 6.12C86.8194 6.17333 86.9394 6.25333 87.0061 6.36C86.7661 7 86.6461 7.63333 86.6461 8.26C86.6461 8.84667 86.7328 9.28667 86.9061 9.58C86.8928 9.66 86.7994 9.81333 86.6261 10.04C86.4661 10.2667 86.2861 10.48 86.0861 10.68C85.7261 10.4933 85.4061 10.24 85.1261 9.92C84.8461 9.58667 84.6394 9.22667 84.5061 8.84C83.8794 9.28 83.3461 9.71333 82.9061 10.14C82.4661 10.5533 82.0861 11.02 81.7661 11.54C81.4594 12.0467 81.1928 12.6333 80.9661 13.3C80.7528 13.9667 80.5461 14.76 80.3461 15.68C80.2261 15.6667 80.0794 15.62 79.9061 15.54C79.7461 15.4733 79.5794 15.3867 79.4061 15.28C79.2461 15.1733 79.0994 15.06 78.9661 14.94C78.8328 14.82 78.7461 14.7067 78.7061 14.6ZM94.1525 6.92C94.2858 6.92 94.4392 6.94667 94.6125 7C94.7992 7.04 94.9658 7.1 95.1125 7.18C95.2592 7.24667 95.3792 7.32 95.4725 7.4C95.5792 7.48 95.6325 7.55333 95.6325 7.62C95.3658 8.18 95.1192 8.74667 94.8925 9.32C94.6658 9.88 94.4725 10.42 94.3125 10.94C94.1525 11.46 94.0258 11.9467 93.9325 12.4C93.8525 12.8533 93.8125 13.2467 93.8125 13.58C93.8125 13.9533 93.8525 14.2667 93.9325 14.52C94.0125 14.76 94.1458 14.9333 94.3325 15.04C94.1725 15.1467 93.9658 15.2333 93.7125 15.3C93.4592 15.3667 93.2325 15.4 93.0325 15.4C92.3125 15.4 91.9525 14.9067 91.9525 13.92C91.9525 13.16 92.2058 12.12 92.7125 10.8C92.4458 11.4133 92.1392 11.9933 91.7925 12.54C91.4458 13.0733 91.0925 13.5467 90.7325 13.96C90.3725 14.3733 90.0058 14.7133 89.6325 14.98C89.2725 15.2333 88.9392 15.3867 88.6325 15.44C88.1392 15.4133 87.7392 15.18 87.4325 14.74C87.1258 14.2867 86.9725 13.7133 86.9725 13.02C86.9725 12.2733 87.1325 11.4867 87.4525 10.66C87.7725 9.83333 88.1792 9.06667 88.6725 8.36C89.1792 7.65333 89.7258 7.06667 90.3125 6.6C90.8992 6.12 91.4658 5.86667 92.0125 5.84C92.1458 5.88 92.2925 5.96 92.4525 6.08C92.6258 6.2 92.7858 6.34 92.9325 6.5C93.0925 6.66 93.2258 6.82667 93.3325 7C93.4392 7.16 93.4992 7.3 93.5125 7.42C92.9792 7.5 92.4258 7.76 91.8525 8.2C91.2925 8.64 90.7792 9.17333 90.3125 9.8C89.8592 10.4133 89.4858 11.0733 89.1925 11.78C88.8992 12.4867 88.7525 13.1467 88.7525 13.76C88.7525 14.0133 88.8458 14.1733 89.0325 14.24C89.4192 14.16 89.8658 13.8333 90.3725 13.26C90.8792 12.6733 91.4925 11.7733 92.2125 10.56C92.3458 10.32 92.4925 10.0533 92.6525 9.76C92.8258 9.46667 92.9992 9.16 93.1725 8.84C93.3458 8.52 93.5125 8.2 93.6725 7.88C93.8458 7.54667 94.0058 7.22667 94.1525 6.92ZM108.207 8.86C107.994 8.87333 107.734 9.01333 107.427 9.28C107.12 9.53333 106.787 9.86667 106.427 10.28C106.08 10.68 105.714 11.1267 105.327 11.62C104.954 12.1133 104.587 12.6067 104.227 13.1C103.88 13.58 103.554 14.0333 103.247 14.46C102.94 14.8867 102.68 15.2267 102.467 15.48C102.174 15.36 101.92 15.1867 101.707 14.96C101.494 14.72 101.34 14.4267 101.247 14.08C101.314 13.6667 101.407 13.24 101.527 12.8C101.647 12.3467 101.8 11.88 101.987 11.4C102.187 10.92 102.427 10.42 102.707 9.9C103 9.36667 103.354 8.80667 103.767 8.22C103.567 8.23333 103.294 8.38 102.947 8.66C102.6 8.92667 102.227 9.28 101.827 9.72C101.427 10.1467 101.014 10.6333 100.587 11.18C100.16 11.7133 99.7604 12.24 99.387 12.76C98.8937 13.4533 98.4804 14.06 98.147 14.58C97.827 15.1 97.5937 15.4067 97.447 15.5C97.1004 15.2467 96.8604 14.9733 96.727 14.68C96.5937 14.3867 96.4937 14.06 96.427 13.7C96.4404 13.38 96.487 12.98 96.567 12.5C96.6604 12.02 96.787 11.5267 96.947 11.02C97.2537 10.0467 97.647 9.08 98.127 8.12C98.6204 7.16 99.0937 6.28 99.547 5.48C99.9204 5.56 100.254 5.68667 100.547 5.86C100.854 6.03333 101.174 6.28667 101.507 6.62C101.374 7.03333 101.167 7.47333 100.887 7.94C100.607 8.39333 100.314 8.87333 100.007 9.38C99.7004 9.88667 99.4204 10.4067 99.167 10.94C98.9137 11.4733 98.747 12.0133 98.667 12.56C99.0404 12.0267 99.4804 11.4133 99.987 10.72C100.507 10.0267 101.034 9.37333 101.567 8.76C102.114 8.14667 102.654 7.62667 103.187 7.2C103.72 6.77333 104.2 6.56 104.627 6.56C104.787 6.56 104.96 6.58667 105.147 6.64C105.334 6.69333 105.507 6.76 105.667 6.84C105.827 6.92 105.96 7 106.067 7.08C106.174 7.14667 106.234 7.2 106.247 7.24C106.18 7.50667 106.02 7.87333 105.767 8.34C105.527 8.79333 105.267 9.27333 104.987 9.78C104.707 10.2867 104.447 10.78 104.207 11.26C103.967 11.7267 103.827 12.1 103.787 12.38C104.44 11.4867 105.054 10.68 105.627 9.96C106.2 9.22667 106.74 8.6 107.247 8.08C107.754 7.56 108.22 7.16 108.647 6.88C109.087 6.6 109.5 6.46 109.887 6.46C110.154 6.46 110.4 6.53333 110.627 6.68C110.867 6.81333 111.034 7.01333 111.127 7.28C111.007 7.68 110.807 8.16 110.527 8.72C110.26 9.28 109.987 9.87333 109.707 10.5C109.427 11.1133 109.174 11.72 108.947 12.32C108.734 12.92 108.627 13.46 108.627 13.94C108.627 14.22 108.667 14.4067 108.747 14.5C108.827 14.58 108.94 14.62 109.087 14.62C109.247 14.62 109.394 14.5933 109.527 14.54C109.674 14.4733 109.78 14.44 109.847 14.44C109.927 14.4933 109.974 14.56 109.987 14.64C110 14.72 110.007 14.7933 110.007 14.86C109.74 15.0733 109.467 15.2467 109.187 15.38C108.907 15.5267 108.594 15.6 108.247 15.6C107.927 15.6 107.66 15.5467 107.447 15.44C107.247 15.3333 107.08 15.1867 106.947 15C106.814 14.8133 106.72 14.6 106.667 14.36C106.614 14.12 106.587 13.86 106.587 13.58C106.587 13.1267 106.647 12.68 106.767 12.24C106.887 11.7867 107.027 11.36 107.187 10.96C107.36 10.5467 107.54 10.1667 107.727 9.82C107.914 9.46 108.074 9.14 108.207 8.86Z" fill="black"/>
</svg>
